<svg width="35" height="34" viewBox="0 0 35 34" fill="none" xmlns="http://www.w3.org/2000/svg">
<path fill-rule="evenodd" clip-rule="evenodd" d="M17.007 0C7.61065 0 0 7.58032 0 16.9393C0 24.435 4.86828 30.7661 11.6285 33.0106C12.4789 33.1588 12.7978 32.6506 12.7978 32.2059C12.7978 31.8036 12.7765 30.4696 12.7765 29.051C8.50353 29.8344 7.39805 28.0134 7.05791 27.0606C6.86659 26.5736 6.03748 25.0702 5.31469 24.6679C4.71946 24.3503 3.86906 23.5669 5.29341 23.5457C6.63271 23.5245 7.58937 24.7738 7.90823 25.2819C9.43892 27.844 11.8836 27.1241 12.8616 26.6795C13.0103 25.5784 13.4568 24.8373 13.9458 24.4138C10.1617 23.9904 6.20758 22.5293 6.20758 16.05C6.20758 14.2079 6.86659 12.6833 7.95079 11.4976C7.78069 11.0741 7.18545 9.3378 8.12083 7.00861C8.12083 7.00861 9.54518 6.56398 12.7978 8.74495C14.1583 8.36377 15.6039 8.17324 17.0495 8.17324C18.4951 8.17324 19.9407 8.36377 21.3013 8.74495C24.5539 6.54277 25.9782 7.00861 25.9782 7.00861C26.9136 9.3378 26.3183 11.0741 26.1483 11.4976C27.2325 12.6833 27.8915 14.1867 27.8915 16.05C27.8915 22.5505 23.9161 23.9904 20.1321 24.4138C20.7485 24.9432 21.28 25.9595 21.28 27.5476C21.28 29.8133 21.2588 31.6343 21.2588 32.2059C21.2588 32.6506 21.5776 33.1799 22.428 33.0106C29.1457 30.7661 34.014 24.4138 34.014 16.9393C34.014 7.58032 26.4034 0 17.007 0Z" fill="white"/>
</svg>
