<svg width="34" height="34" viewBox="0 0 34 34" fill="none" xmlns="http://www.w3.org/2000/svg">
<path d="M28.9 0H5.1C2.28335 0 0 2.28335 0 5.1V28.9C0 31.7167 2.28335 34 5.1 34H28.9C31.7167 34 34 31.7167 34 28.9V5.1C34 2.28335 31.7167 0 28.9 0Z" fill="#0077B5"/>
<path d="M9.5 12C10.8807 12 12 10.8807 12 9.5C12 8.11929 10.8807 7 9.5 7C8.11929 7 7 8.11929 7 9.5C7 10.8807 8.11929 12 9.5 12Z" fill="white"/>
<path d="M16 13V26V13ZM9 13V26V13Z" fill="white"/>
<path fill-rule="evenodd" clip-rule="evenodd" d="M7 26V13H11.3214V26H7ZM13.6786 26V13H18V26H13.6786Z" fill="white"/>
<path d="M18 18.9208C18 17.6337 18.8667 16.3465 20.4 16.3465C22 16.3465 22.6 17.505 22.6 19.2426V26H27V18.7277C27 14.802 24.8667 13 21.9333 13C19.6667 13 18.5333 14.2228 18 15.0594" fill="white"/>
</svg>
